<?xml version="1.0" encoding="UTF-8"?>
<!DOCTYPE svg PUBLIC "-//W3C//DTD SVG 1.1//EN" "http://www.w3.org/Graphics/SVG/1.1/DTD/svg11.dtd">
<!-- Creator: CorelDRAW -->
<svg xmlns="http://www.w3.org/2000/svg" xml:space="preserve" width="642px" height="719px" version="1.1" style="shape-rendering:geometricPrecision; text-rendering:geometricPrecision; image-rendering:optimizeQuality; fill-rule:evenodd; clip-rule:evenodd"
viewBox="0 0 722.03 807.98"
 xmlns:xlink="http://www.w3.org/1999/xlink"
 xmlns:xodm="http://www.corel.com/coreldraw/odm/2003">
 <defs>
  <style type="text/css">
   <![CDATA[
    .fil0 {fill:#C12488;fill-rule:nonzero}
   ]]>
  </style>
 </defs>
 <g id="Слой_x0020_1">
  <metadata id="CorelCorpID_0Corel-Layer"/>
  <path class="fil0" d="M336.14 89.62c7.2,-29.57 13.05,-61.19 23.98,-89.62 7.12,39.24 15.26,78.77 28.05,116.6 16.8,49.65 40.9,96.92 63.44,144.12 30.31,63.49 60.94,127.24 89.37,191.59 32.26,-3.71 65.73,-1.99 98.14,-1.6 -0.17,12.95 -0.08,25.92 -0.09,38.87l-3.56 0.27c-24.63,1.7 -49.65,-0.66 -74.36,0.7l-1.13 1.71 4.91 9.25c25.06,42.54 44.25,90.24 63.67,135.57 28.17,-47.56 50.26,-98.05 55.48,-153.65 0.27,-2.68 0.5,-5.37 0.7,-8.06 0.2,-2.69 0.37,-5.39 0.5,-8.08 0.13,-2.7 0.23,-5.4 0.3,-8.09 0.06,-2.7 0.1,-5.4 0.1,-8.1 -0.01,-2.7 -0.04,-5.4 -0.11,-8.09 -0.07,-2.7 -0.17,-5.4 -0.3,-8.09 -0.14,-2.7 -0.31,-5.39 -0.51,-8.09 -0.21,-2.69 -0.44,-5.37 -0.71,-8.06 -0.27,-2.68 -0.58,-5.37 -0.92,-8.04 -0.33,-2.68 -0.7,-5.36 -1.11,-8.02 -0.4,-2.67 -0.83,-5.34 -1.31,-7.99 -0.46,-2.66 -0.97,-5.31 -1.5,-7.96 -0.54,-2.64 -1.11,-5.28 -1.71,-7.91 -0.6,-2.63 -1.24,-5.25 -1.9,-7.87 -0.67,-2.61 -1.37,-5.22 -2.1,-7.82 -0.74,-2.6 -1.5,-5.19 -2.3,-7.77 -0.79,-2.57 -1.62,-5.14 -2.48,-7.7 -0.86,-2.56 -1.75,-5.1 -2.68,-7.64 -0.92,-2.54 -1.88,-5.06 -2.86,-7.57 -0.99,-2.51 -2.01,-5.01 -3.06,-7.5 -1.05,-2.49 -2.13,-4.96 -3.24,-7.42 -1.11,-2.46 -2.26,-4.9 -3.42,-7.33 -1.18,-2.44 -2.38,-4.85 -3.61,-7.25 -1.23,-2.4 -2.5,-4.79 -3.79,-7.16 -1.29,-2.37 -2.61,-4.72 -3.96,-7.06 -1.35,-2.33 -2.73,-4.66 -4.14,-6.96 -1.41,-2.3 -2.84,-4.58 -4.31,-6.85 -1.46,-2.27 -2.96,-4.52 -4.48,-6.74 -1.52,-2.24 -3.07,-4.45 -4.65,-6.63 -1.57,-2.2 -3.17,-4.37 -4.8,-6.52 -1.64,-2.15 -3.29,-4.28 -4.98,-6.39 -1.68,-2.11 -3.39,-4.2 -5.12,-6.26 -49.34,-59.63 -122.97,-105.53 -201.28,-112.7 -3.83,-13.66 -6.52,-27.46 -9.2,-41.39 53.96,6.71 102.48,24.13 148.43,53.34 83.13,52.84 144.51,134.7 165.54,231.57 16.2,74.65 11.23,155.86 -21.52,225.45 -11.82,25.13 -27.29,48.26 -42.2,71.61 8.1,42.07 16.02,83.85 18.56,126.68 -15.67,-31.23 -32.16,-61.05 -50.65,-90.71 -70.22,63.5 -169.55,104.59 -264.66,101.56 -94.71,-3.03 -181.81,-38.73 -247,-108.21 -15.86,31.5 -36.57,46.16 -65.52,64.81l37.78 -97.66c-46.73,-53.68 -71.62,-124.04 -76.76,-194.45 -0.24,-2.96 -0.43,-5.93 -0.59,-8.9 -0.16,-2.96 -0.28,-5.93 -0.36,-8.9 -0.09,-2.98 -0.14,-5.95 -0.15,-8.92 -0.01,-2.97 0.02,-5.95 0.08,-8.92 0.07,-2.97 0.17,-5.94 0.31,-8.92 0.13,-2.96 0.31,-5.93 0.52,-8.9 0.21,-2.96 0.46,-5.92 0.74,-8.88 0.29,-2.96 0.61,-5.92 0.97,-8.87 0.36,-2.95 0.75,-5.9 1.19,-8.84 0.43,-2.94 0.9,-5.88 1.4,-8.81 0.5,-2.93 1.05,-5.85 1.62,-8.77 0.58,-2.91 1.2,-5.82 1.85,-8.72 0.65,-2.9 1.33,-5.8 2.06,-8.68 0.72,-2.89 1.47,-5.76 2.27,-8.62 0.79,-2.87 1.62,-5.72 2.48,-8.57 0.87,-2.84 1.77,-5.68 2.71,-8.5 0.93,-2.82 1.9,-5.63 2.91,-8.43 1,-2.8 2.04,-5.58 3.12,-8.35 1.07,-2.78 2.18,-5.53 3.32,-8.28 1.14,-2.74 2.32,-5.47 3.53,-8.19 1.21,-2.71 2.46,-5.41 3.74,-8.1 1.27,-2.68 2.59,-5.35 3.93,-8 1.34,-2.65 2.72,-5.29 4.13,-7.9 1.41,-2.62 2.86,-5.22 4.33,-7.8 1.48,-2.58 2.98,-5.14 4.52,-7.69 1.54,-2.55 3.11,-5.07 4.71,-7.57 1.6,-2.51 3.23,-4.99 4.9,-7.46 1.66,-2.46 3.35,-4.9 5.08,-7.33 1.72,-2.42 3.47,-4.82 5.26,-7.2 1.78,-2.38 3.6,-4.73 5.44,-7.07 1.84,-2.33 3.71,-4.64 5.61,-6.93 1.9,-2.28 3.83,-4.55 5.78,-6.78 63.55,-72.61 151.74,-112.84 247.63,-118.89zm-243.94 540.06c16.38,-40.12 32.46,-80.99 51.49,-119.94l42.77 0.58c-20.91,51.89 -44.87,102.93 -68.48,153.64 74.15,67.8 151.98,110.7 255.6,106.33 55.7,-2.36 113.32,-19.55 160.21,-49.89 24.17,-15.65 46.53,-33.89 70.49,-49.82 -25.48,-57.13 -56.43,-112.95 -78.54,-171.34l-3.27 -10.31c-42.78,0.56 -86.44,-1.29 -129.09,1.23l-0.05 -38.4c36.21,0.24 72.43,0.74 108.64,1.5 -24.74,-53.96 -51.66,-106.95 -76.81,-160.73 -21.4,-45.76 -41.14,-93.56 -65.61,-137.74 -25.22,46.44 -47.64,94.45 -70.74,141.96 -24.54,50.48 -49.71,100.77 -73.46,151.62 33.9,0.22 68.21,-0.83 102.04,0.5 -0.24,13.25 -0.64,26.5 -1.18,39.74 -80.93,-3.28 -162.14,2.91 -243.01,-1.44 -0.38,-12.95 -1.05,-25.96 -0.98,-38.92 32.46,-0.04 65.19,-0.97 97.61,0.32 30.06,-60.48 59.63,-121.2 88.71,-182.15 21.71,-45.01 44.56,-89.83 62.85,-136.36 -2.44,0.18 -4.89,0.39 -7.33,0.64 -2.45,0.24 -4.88,0.51 -7.32,0.82 -2.44,0.3 -4.87,0.64 -7.29,1 -2.43,0.36 -4.85,0.76 -7.27,1.18 -2.42,0.42 -4.83,0.88 -7.24,1.36 -2.41,0.48 -4.81,0.99 -7.2,1.53 -2.4,0.55 -4.78,1.12 -7.16,1.72 -2.38,0.6 -4.75,1.23 -7.12,1.89 -2.36,0.66 -4.72,1.35 -7.07,2.06 -2.34,0.72 -4.68,1.46 -7.01,2.24 -2.33,0.78 -4.65,1.58 -6.96,2.41 -2.31,0.83 -4.61,1.69 -6.89,2.58 -2.29,0.89 -4.57,1.81 -6.83,2.75 -2.27,0.94 -4.53,1.92 -6.77,2.92 -2.24,1 -4.47,2.02 -6.69,3.08 -2.21,1.05 -4.41,2.13 -6.6,3.24 -2.19,1.11 -4.37,2.25 -6.53,3.41 -2.16,1.16 -4.31,2.35 -6.44,3.57 -2.13,1.21 -4.25,2.45 -6.35,3.72 -2.11,1.27 -4.19,2.56 -6.26,3.88 -2.07,1.32 -4.13,2.66 -6.16,4.03 -2.04,1.37 -4.06,2.77 -6.06,4.19 -2.01,1.42 -3.99,2.86 -5.96,4.33 -1.97,1.47 -3.92,2.96 -5.84,4.48 -1.94,1.51 -3.85,3.05 -5.74,4.61 -1.89,1.57 -3.76,3.15 -5.62,4.76 -1.85,1.61 -3.69,3.24 -5.5,4.9 -1.81,1.65 -3.61,3.33 -5.38,5.03 -1.77,1.7 -3.52,3.42 -5.25,5.16 -1.73,1.74 -3.44,3.5 -5.12,5.29 -1.69,1.78 -3.36,3.58 -5,5.41 -1.64,1.82 -3.26,3.67 -4.85,5.53 -57.39,66.03 -84.02,146.44 -77.81,233.56 4.51,63.34 23.61,107.47 53.43,162.34z"/>
 </g>
</svg>
