<?xml version="1.0" encoding="UTF-8"?>
<!DOCTYPE svg PUBLIC "-//W3C//DTD SVG 1.1//EN" "http://www.w3.org/Graphics/SVG/1.1/DTD/svg11.dtd">
<!-- Creator: CorelDRAW -->
<svg xmlns="http://www.w3.org/2000/svg" xml:space="preserve" width="229px" height="256px" version="1.1" style="shape-rendering:geometricPrecision; text-rendering:geometricPrecision; image-rendering:optimizeQuality; fill-rule:evenodd; clip-rule:evenodd"
viewBox="0 0 257.55 288.2"
 xmlns:xlink="http://www.w3.org/1999/xlink"
 xmlns:xodm="http://www.corel.com/coreldraw/odm/2003">
 <defs>
  <style type="text/css">
   <![CDATA[
    .fil0 {fill:#C12488;fill-rule:nonzero}
   ]]>
  </style>
 </defs>
 <g id="Слой_x0020_1">
  <metadata id="CorelCorpID_0Corel-Layer"/>
  <path class="fil0" d="M119.9 31.97c2.57,-10.55 4.66,-21.83 8.56,-31.97 2.53,14 5.44,28.1 10,41.59 5.99,17.71 14.59,34.57 22.63,51.41 10.81,22.64 21.74,45.39 31.88,68.34 11.5,-1.32 23.44,-0.71 35,-0.57 -0.06,4.62 -0.03,9.24 -0.03,13.86l-1.27 0.1c-8.78,0.61 -17.71,-0.24 -26.52,0.25l-0.41 0.61 1.75 3.3c8.94,15.17 15.79,32.19 22.71,48.36 10.06,-16.97 17.93,-34.98 19.8,-54.81 0.09,-0.96 0.17,-1.92 0.25,-2.88 0.07,-0.96 0.13,-1.92 0.17,-2.88 0.05,-0.96 0.09,-1.92 0.11,-2.89 0.02,-0.96 0.04,-1.92 0.04,-2.88 -0.01,-0.97 -0.02,-1.93 -0.04,-2.89 -0.03,-0.96 -0.06,-1.93 -0.11,-2.89 -0.05,-0.96 -0.11,-1.92 -0.18,-2.88 -0.08,-0.96 -0.16,-1.92 -0.26,-2.88 -0.09,-0.95 -0.2,-1.91 -0.32,-2.87 -0.12,-0.95 -0.25,-1.9 -0.4,-2.86 -0.14,-0.95 -0.3,-1.9 -0.47,-2.85 -0.16,-0.94 -0.34,-1.89 -0.53,-2.83 -0.19,-0.95 -0.4,-1.89 -0.61,-2.83 -0.22,-0.93 -0.44,-1.87 -0.68,-2.8 -0.24,-0.93 -0.49,-1.87 -0.75,-2.79 -0.26,-0.93 -0.53,-1.85 -0.82,-2.77 -0.28,-0.92 -0.58,-1.84 -0.88,-2.75 -0.31,-0.91 -0.63,-1.82 -0.96,-2.72 -0.33,-0.91 -0.67,-1.81 -1.02,-2.71 -0.35,-0.89 -0.72,-1.78 -1.09,-2.67 -0.38,-0.89 -0.76,-1.77 -1.16,-2.65 -0.39,-0.87 -0.8,-1.75 -1.22,-2.61 -0.42,-0.87 -0.85,-1.73 -1.29,-2.59 -0.43,-0.86 -0.88,-1.71 -1.35,-2.55 -0.46,-0.85 -0.93,-1.69 -1.41,-2.52 -0.48,-0.83 -0.97,-1.66 -1.48,-2.48 -0.5,-0.82 -1.01,-1.64 -1.53,-2.45 -0.53,-0.8 -1.06,-1.61 -1.6,-2.4 -0.54,-0.8 -1.1,-1.59 -1.66,-2.37 -0.56,-0.78 -1.13,-1.55 -1.71,-2.32 -0.59,-0.77 -1.18,-1.53 -1.78,-2.28 -0.6,-0.75 -1.21,-1.5 -1.83,-2.23 -17.59,-21.27 -43.86,-37.65 -71.79,-40.2 -1.37,-4.88 -2.33,-9.8 -3.28,-14.77 19.25,2.4 36.55,8.61 52.94,19.03 29.66,18.85 51.55,48.05 59.05,82.6 5.78,26.63 4,55.59 -7.67,80.42 -4.22,8.96 -9.74,17.21 -15.06,25.54 2.89,15.01 5.72,29.91 6.62,45.19 -5.59,-11.14 -11.47,-21.78 -18.06,-32.36 -25.05,22.65 -60.48,37.31 -94.41,36.23 -33.78,-1.08 -64.85,-13.82 -88.1,-38.6 -5.66,11.23 -13.05,16.47 -23.37,23.12l13.47 -34.84c-16.67,-19.14 -25.54,-44.24 -27.38,-69.36 -0.08,-1.05 -0.15,-2.11 -0.21,-3.17 -0.05,-1.06 -0.1,-2.12 -0.13,-3.18 -0.03,-1.06 -0.04,-2.12 -0.05,-3.18 0,-1.06 0.01,-2.12 0.03,-3.18 0.02,-1.06 0.06,-2.12 0.11,-3.18 0.05,-1.06 0.11,-2.12 0.18,-3.18 0.08,-1.05 0.17,-2.11 0.27,-3.17 0.1,-1.05 0.22,-2.11 0.34,-3.16 0.13,-1.05 0.27,-2.1 0.43,-3.15 0.15,-1.05 0.32,-2.1 0.5,-3.14 0.18,-1.05 0.37,-2.09 0.58,-3.13 0.2,-1.04 0.42,-2.08 0.66,-3.11 0.23,-1.04 0.47,-2.07 0.73,-3.1 0.26,-1.03 0.53,-2.05 0.81,-3.07 0.28,-1.03 0.58,-2.05 0.89,-3.06 0.31,-1.01 0.63,-2.03 0.96,-3.03 0.33,-1.01 0.68,-2.01 1.04,-3.01 0.36,-1 0.73,-1.99 1.11,-2.98 0.38,-0.99 0.78,-1.97 1.19,-2.95 0.4,-0.98 0.82,-1.95 1.26,-2.92 0.43,-0.97 0.87,-1.93 1.33,-2.89 0.45,-0.96 0.92,-1.91 1.4,-2.86 0.48,-0.94 0.97,-1.88 1.48,-2.81 0.5,-0.94 1.01,-1.87 1.54,-2.79 0.53,-0.92 1.06,-1.83 1.61,-2.74 0.55,-0.91 1.11,-1.81 1.68,-2.7 0.57,-0.89 1.16,-1.78 1.75,-2.66 0.59,-0.88 1.2,-1.75 1.81,-2.61 0.62,-0.87 1.24,-1.72 1.88,-2.57 0.63,-0.85 1.28,-1.69 1.94,-2.52 0.66,-0.84 1.32,-1.66 2,-2.47 0.68,-0.82 1.37,-1.63 2.06,-2.43 22.67,-25.9 54.13,-40.24 88.33,-42.4zm-87.01 192.63c5.84,-14.31 11.58,-28.89 18.36,-42.78l15.26 0.21c-7.46,18.51 -16.01,36.71 -24.43,54.8 26.45,24.19 54.21,39.49 91.18,37.93 19.86,-0.84 40.42,-6.97 57.14,-17.8 8.62,-5.58 16.6,-12.08 25.15,-17.76 -9.09,-20.39 -20.13,-40.29 -28.02,-61.12l-1.17 -3.68c-15.25,0.2 -30.83,-0.46 -46.04,0.44l-0.02 -13.7c12.92,0.09 25.83,0.26 38.75,0.54 -8.82,-19.25 -18.42,-38.15 -27.4,-57.34 -7.63,-16.32 -14.67,-33.37 -23.4,-49.13 -9,16.57 -16.99,33.69 -25.23,50.64 -8.76,18.01 -17.73,35.94 -26.21,54.08 12.1,0.08 24.33,-0.29 36.4,0.18 -0.08,4.73 -0.23,9.45 -0.42,14.18 -28.87,-1.18 -57.83,1.03 -86.68,-0.52 -0.14,-4.62 -0.37,-9.26 -0.35,-13.88 11.58,-0.01 23.25,-0.35 34.82,0.11 10.72,-21.57 21.27,-43.23 31.64,-64.97 7.75,-16.05 15.9,-32.04 22.42,-48.64 -0.87,0.07 -1.74,0.14 -2.62,0.23 -0.87,0.09 -1.74,0.18 -2.61,0.29 -0.87,0.11 -1.73,0.23 -2.6,0.36 -0.86,0.13 -1.73,0.27 -2.59,0.42 -0.86,0.15 -1.72,0.31 -2.58,0.49 -0.86,0.17 -1.72,0.35 -2.57,0.54 -0.86,0.2 -1.71,0.4 -2.56,0.61 -0.84,0.22 -1.69,0.44 -2.53,0.68 -0.85,0.23 -1.69,0.48 -2.52,0.74 -0.84,0.25 -1.68,0.52 -2.51,0.79 -0.83,0.28 -1.65,0.57 -2.48,0.86 -0.82,0.3 -1.64,0.61 -2.46,0.92 -0.82,0.32 -1.63,0.65 -2.43,0.98 -0.81,0.34 -1.62,0.69 -2.42,1.04 -0.8,0.36 -1.59,0.73 -2.38,1.1 -0.79,0.38 -1.58,0.77 -2.36,1.16 -0.78,0.4 -1.56,0.8 -2.33,1.22 -0.77,0.41 -1.54,0.84 -2.3,1.27 -0.76,0.43 -1.51,0.87 -2.26,1.33 -0.75,0.45 -1.5,0.91 -2.23,1.38 -0.74,0.47 -1.47,0.95 -2.2,1.44 -0.73,0.49 -1.45,0.99 -2.16,1.49 -0.72,0.51 -1.43,1.02 -2.13,1.55 -0.7,0.52 -1.39,1.05 -2.08,1.59 -0.69,0.54 -1.37,1.09 -2.05,1.65 -0.67,0.56 -1.34,1.12 -2,1.7 -0.66,0.57 -1.32,1.15 -1.96,1.74 -0.65,0.59 -1.29,1.19 -1.92,1.8 -0.64,0.6 -1.26,1.22 -1.88,1.84 -0.61,0.62 -1.22,1.25 -1.82,1.88 -0.61,0.64 -1.2,1.28 -1.79,1.94 -0.58,0.65 -1.16,1.3 -1.73,1.97 -20.47,23.55 -29.97,52.23 -27.75,83.31 1.61,22.59 8.42,38.34 19.06,57.9z"/>
 </g>
</svg>
